Coordinates
version=1
nRows=37
nColumns=19
inDegrees=yes

Units are S.I. units (second, meters, Newtons, ...)
If the header above contains a line with 'inDegrees', this indicates whether rotational values are in degrees (yes) or radians (no).

endheader
time	pelvis_tilt	pelvis_list	pelvis_rotation	pelvis_tx	pelvis_ty	pelvis_tz	hip_flexion_r	hip_adduction_r	hip_rotation_r	knee_angle_r	knee_angle_r_beta	ankle_angle_r	hip_flexion_l	hip_adduction_l	hip_rotation_l	knee_angle_l	knee_angle_l_beta	ankle_angle_l
     15.09333333	      2.31819913	     -8.63317355	     -2.12318961	      2.15078335	      1.10282443	      1.05750497	     19.11971129	     11.67414657	    -11.41679638	     18.96022462	      0.33091835	      6.26649074	    -22.94351773	    -12.80307253	    -19.61167845	     38.84405634	      0.67795668	    -13.61917116
     15.10000000	      2.57675415	     -9.31711091	     -2.44883383	      2.15116782	      1.09808527	      1.05846479	     19.33189568	     12.11089062	    -12.28962812	     21.44591835	      0.37430189	      6.09039683	    -22.50725650	    -14.01441837	    -19.96534286	     42.01396347	      0.73328199	    -12.93517501
     15.10666667	      3.02036827	    -10.02542484	     -2.79209777	      2.15125637	      1.09338930	      1.05941081	     19.32534974	     12.58371223	    -12.87774806	     23.99457899	      0.41878441	      6.12982619	    -22.22936323	    -15.18750019	    -20.19912025	     45.17484951	      0.78844986	    -12.25744025
     15.11333333	      3.79102828	    -10.77784082	     -3.14066216	      2.15099639	      1.08896616	      1.06035125	     18.91915145	     13.13603762	    -13.17262981	     26.50510569	      0.46260136	      6.45859952	    -22.28060575	    -16.32100449	    -20.38177250	     48.27657653	      0.84258521	    -11.57903206
     15.12000000	      3.96158640	    -11.40308050	     -3.51563691	      2.15036571	      1.08382903	      1.06142002	     19.21036119	     13.59893180	    -13.28964979	     29.10861182	      0.50804112	      7.07091464	    -21.43941643	    -17.36200839	    -20.15469159	     51.61000658	      0.90076454	    -10.78829765
     15.12666667	      4.70469498	    -12.12227603	     -3.87551622	      2.14939004	      1.07931700	      1.06238560	     18.77813008	     14.20047679	    -13.18164158	     31.52753543	      0.55025930	      8.01602757	    -21.24986904	    -18.40866282	    -20.08052512	     54.79249474	      0.95630944	     -9.96127470
     15.13333333	      4.91087510	    -12.82231424	     -4.23256823	      2.14813425	      1.07438443	      1.06346629	     18.90140106	     14.87536745	    -12.89876525	     33.84693186	      0.59074040	      9.13539768	    -20.25859244	    -19.42806990	    -19.54401532	     58.10094768	      1.01405284	     -9.10813537
     15.14000000	      5.67295835	    -13.51321951	     -4.57717761	      2.14651658	      1.07016980	      1.06441333	     18.33013570	     15.55497905	    -12.46333860	     36.01229040	      0.62853304	     10.54868322	    -19.88131775	    -20.29113723	    -19.09710256	     61.19637654	      1.06807826	     -8.18630704
     15.14666667	      5.70066797	    -14.18025827	     -4.83124716	      2.14474965	      1.06539820	      1.06537868	     18.48536544	     16.25782652	    -12.15656321	     37.97184242	      0.66273367	     11.98993290	    -18.41033958	    -21.28230418	    -18.21332576	     64.49614118	      1.12567002	     -7.16426967
     15.15333333	      6.03563506	    -14.85437489	     -4.99838001	      2.14277541	      1.06122900	      1.06615669	     18.18836915	     16.96045053	    -11.83149081	     39.70169742	      0.69292534	     13.54170784	    -17.20602202	    -22.17461009	    -17.23207458	     67.60762493	      1.17997565	     -6.11633873
     15.16000000	      6.25258409	    -15.48235880	     -5.06655372	      2.14071790	      1.05725453	      1.06679232	     17.91678335	     17.61154659	    -11.58772755	     41.22064697	      0.71943601	     15.09365915	    -15.70772929	    -23.00271710	    -16.00150123	     70.64200197	      1.23293552	     -5.01055128
     15.16666667	      6.47235219	    -16.13260495	     -4.97379701	      2.13865964	      1.05365291	      1.06720921	     17.51102648	     18.25871335	    -11.47894798	     42.45872571	      0.74104456	     16.57070057	    -14.06105864	    -23.84380528	    -14.55173464	     73.55400291	      1.28375953	     -3.89891903
     15.17333333	      6.76349064	    -16.70644423	     -4.83013603	      2.13659756	      1.05056395	      1.06752593	     16.89622087	     18.83445684	    -11.33759861	     43.47168432	      0.75872402	     17.94370381	    -12.40868071	    -24.53079216	    -13.01502946	     76.26662452	      1.33110371	     -2.79198387
     15.18000000	      6.76230168	    -17.24081748	     -4.42267437	      2.13464304	      1.04756426	      1.06751075	     16.51692325	     19.29049373	    -11.55620041	     44.24363595	      0.77219712	     19.23321754	    -10.13947042	    -25.19400668	    -10.99179033	     78.91761130	      1.37737215	     -1.67738836
     15.18666667	      6.39985921	    -17.55441414	     -3.99299060	      2.13270169	      1.04470451	      1.06746794	     16.46470431	     19.52604896	    -11.82434550	     44.88961973	      0.78347166	     20.32926152	     -7.27434976	    -25.54157477	     -8.69160014	     81.43161362	      1.42124977	     -0.73000743
     15.19333333	      6.04639275	    -17.80281330	     -3.55642170	      2.13084608	      1.04233087	      1.06735929	     16.27836423	     19.70372244	    -12.05774375	     45.33476852	      0.79124098	     21.32303231	     -4.39652634	    -25.71360623	     -6.40980218	     83.70672228	      1.46095791	      0.16723648
     15.20000000	      6.03433949	    -18.09275708	     -2.85553241	      2.12914352	      1.04088131	      1.06693319	     15.57801149	     19.88106292	    -12.43765155	     45.44802231	      0.79321763	     22.14970078	     -1.81522169	    -25.84581850	     -4.04627590	     85.68017544	      1.49540117	      0.94493164
     15.20666667	      5.70523137	    -18.19971439	     -2.20430310	      2.12745355	      1.03960850	      1.06646195	     15.15490964	     19.88091095	    -12.82423556	     45.46438058	      0.79350313	     22.86213972	      1.17280530	    -25.66080035	     -1.63752760	     87.47000264	      1.52663954	      1.62335511
     15.21333333	      5.18528413	    -18.17771612	     -1.65820167	      2.12587139	      1.03867596	      1.06617098	     14.83283726	     19.79778378	    -13.10366576	     45.34929423	      0.79149450	     23.45930585	      4.29342199	    -25.26078701	      0.60798366	     88.99516065	      1.55325857	      2.21497542
     15.22000000	      5.21113748	    -18.17218030	     -0.90876850	      2.12441436	      1.03890060	      1.06556711	     13.77085505	     19.73043637	    -13.41369993	     44.91909211	      0.78398605	     23.93953181	      6.74629765	    -24.80466293	      2.68604630	     90.15139159	      1.57343861	      2.70707721
     15.22666667	      4.92014364	    -18.00988870	     -0.28019233	      2.12304114	      1.03934635	      1.06504209	     12.96780809	     19.54087613	    -13.64403522	     44.39024671	      0.77475596	     24.30589271	      9.45855007	    -24.09357173	      4.61678096	     91.06577615	      1.58939763	      3.10314208
     15.23333333	      4.58331157	    -17.77128972	      0.23065051	      2.12174104	      1.04027400	      1.06462889	     12.10881471	     19.32194062	    -13.73906477	     43.72894021	      0.76321399	     24.55796074	     12.06037892	    -23.28767093	      6.23543816	     91.69792925	      1.60043078	      3.44443002
     15.24000000	      4.47246215	    -17.34009933	      0.17363672	      2.12060506	      1.04220875	      1.06488356	     10.79464062	     19.10519506	    -13.00072934	     42.96997884	      0.74996761	     24.71165808	     13.88213782	    -22.46831155	      6.82994830	     91.88320180	      1.60366440	      3.80558602
     15.24666667	      4.09589812	    -17.04779261	      1.01053825	      2.11968802	      1.04390483	      1.06393485	      9.83385966	     18.73968705	    -13.60867250	     41.93038832	      0.73182333	     24.70666838	     16.49166445	    -21.47555713	      8.47085432	     92.01210436	      1.60591417	      4.06335779
     15.25333333	      3.80715923	    -16.57955676	      1.25867855	      2.11866005	      1.04629174	      1.06368208	      8.65280320	     18.42101252	    -13.27802961	     40.89568048	      0.71376427	     24.64883781	     18.53484521	    -20.49219089	      9.18403326	     91.78702429	      1.60198578	      4.30636725
     15.26000000	      3.44778327	    -16.01831728	      1.14596439	      2.11802866	      1.04911725	      1.06378659	      7.40957659	     18.02798982	    -12.65869771	     39.79362680	      0.69452981	     24.36540941	     20.30795471	    -19.60192980	      9.27935033	     91.23145200	      1.59228922	      4.66501682
     15.26666667	      3.05534279	    -15.43171877	      1.11321586	      2.11759315	      1.05220288	      1.06375270	      6.16662848	     17.58351958	    -12.15146193	     38.58314797	      0.67340297	     23.95414944	     22.05071689	    -18.71115134	      9.29490934	     90.43746502	      1.57843153	      4.98577659
     15.27333333	      3.44814306	    -14.86368227	      1.51156692	      2.11738592	      1.05649232	      1.06319163	      3.96055936	     17.17018380	    -11.86850082	     36.99019738	      0.64560074	     23.26833251	     22.88487075	    -17.79785298	      9.40203440	     89.32663054	      1.55904381	      5.30335537
     15.28000000	      3.45630779	    -14.18022053	      1.45388427	      2.11745976	      1.06070670	      1.06313175	      2.12816749	     16.63885120	    -11.23852420	     35.49387695	      0.61948502	     22.44481747	     23.83696027	    -16.97867673	      8.94134016	     87.96876126	      1.53534452	      5.66317034
     15.28666667	      3.52066575	    -13.43128525	      1.31061804	      2.11779643	      1.06523342	      1.06312408	      0.19098412	     16.02235511	    -10.53090736	     33.93038986	      0.59219702	     21.44793079	     24.54473838	    -16.19881721	      8.21742014	     86.36206750	      1.50730243	      6.06988175
     15.29333333	      2.82695086	    -12.73212895	      1.09141465	      2.11831555	      1.06895899	      1.06304156	     -0.82574401	     15.38863042	    -10.00908071	     32.51723389	      0.56753280	     20.27075783	     26.05742117	    -15.38038684	      7.60229653	     84.66096258	      1.47761254	      6.42100121
     15.30000000	      3.59861931	    -11.73071059	      0.85626056	      2.11923558	      1.07483636	      1.06320271	     -3.64089962	     14.46223913	     -9.15160295	     30.73704228	      0.53646259	     18.86840643	     25.54987966	    -14.63357126	      6.20416597	     82.44951987	      1.43901559	      6.81436692
     15.30666667	      3.78129373	    -10.83573763	      0.64463882	      2.12033507	      1.07998589	      1.06319025	     -5.73844731	     13.59181350	     -8.54213146	     29.01274926	      0.50636800	     17.27025363	     25.68862619	    -13.87822576	      5.00744868	     80.15228446	      1.39892127	      7.23778345
     15.31333333	      3.82163031	     -9.85615070	      0.38380060	      2.12157386	      1.08498680	      1.06321382	     -7.60438923	     12.58555402	     -8.02481856	     27.39203317	      0.47808117	     15.53410090	     25.86484734	    -13.05531401	      3.68273234	     77.66490033	      1.35550822	      7.58910988
     15.32000000	      3.77754988	     -8.83184314	      0.12171768	      2.12296653	      1.08990712	      1.06316781	     -9.32786462	     11.49562440	     -7.63109905	     25.80086523	      0.45031005	     13.64975560	     26.02305459	    -12.17296830	      2.30105282	     74.98362998	      1.30871123	      7.89294945
     15.32666667	      3.64869160	     -7.72780219	     -0.10490596	      2.12441872	      1.09470622	      1.06302188	    -10.85921471	     10.29139481	     -7.43289321	     24.31865717	      0.42444064	     11.59568913	     26.16922734	    -11.14938709	      0.91045523	     72.09960518	      1.25837550	      8.20319513
     15.33333333	      3.51503358	     -6.65604015	     -0.31656734	      2.12599854	      1.09944480	      1.06282145	    -12.36989235	      9.12348940	     -7.26824841	     22.79254040	      0.39780487	      9.44007698	     26.22375703	    -10.15202263	     -0.50797534	     69.03551786	      1.20489709	      8.40027757
